<svg width="80" height="80" viewBox="0 0 80 80" fill="none" xmlns="http://www.w3.org/2000/svg">
<path d="M80 40C80 62.0914 62.0914 80 40 80C17.9086 80 0 62.0914 0 40C0 17.9086 17.9086 0 40 0C62.0914 0 80 17.9086 80 40ZM7.93189 40C7.93189 57.7107 22.2893 72.0681 40 72.0681C57.7107 72.0681 72.0681 57.7107 72.0681 40C72.0681 22.2893 57.7107 7.93189 40 7.93189C22.2893 7.93189 7.93189 22.2893 7.93189 40Z" fill="#F9F9F9"/>
<path d="M40 3.96423C40 1.77485 41.7791 -0.0203517 43.9578 0.196277C48.581 0.655976 53.0992 1.91872 57.3061 3.93756C62.7071 6.52949 67.457 10.3015 71.205 14.975C74.953 19.6486 77.6033 25.1043 78.9603 30.9394C80.3173 36.7744 80.3463 42.8398 79.0452 48.6876C77.7441 54.5353 75.146 60.0162 71.4429 64.7253C67.7398 69.4345 63.0262 73.2518 57.6502 75.8953C52.2742 78.5387 46.3731 79.9409 40.3826 79.9982C35.7166 80.0428 31.0892 79.2707 26.7073 77.7267C24.6423 76.9991 23.7922 74.6189 24.7205 72.6361C25.6488 70.6532 28.0041 69.8241 30.0863 70.5008C33.3775 71.5706 36.8288 72.1033 40.3068 72.0701C45.1099 72.0241 49.8413 70.8999 54.1517 68.7804C58.4622 66.6609 62.2415 63.6003 65.2106 59.8245C68.1797 56.0487 70.2627 51.6543 71.306 46.9656C72.3492 42.2769 72.326 37.4138 71.2379 32.7353C70.1499 28.0568 68.0249 23.6825 65.0198 19.9353C62.0147 16.1881 58.2063 13.1637 53.8758 11.0856C50.7401 9.58073 47.3885 8.59984 43.9542 8.17315C41.7815 7.90322 40 6.15362 40 3.96423Z" fill="#ED415C"/>
<path d="M25.2188 48.14C24.3388 48.14 23.4588 47.9933 22.5788 47.7C21.7121 47.4067 20.9988 47.0067 20.4388 46.5L21.2988 44.62C21.9388 45.1 22.5854 45.4667 23.2388 45.72C23.9054 45.9733 24.5788 46.1 25.2588 46.1C26.1388 46.1 26.8188 45.88 27.2988 45.44C27.7788 44.9867 28.0188 44.3467 28.0188 43.52C28.0188 42.9867 27.9054 42.5267 27.6788 42.14C27.4654 41.7533 27.1588 41.4533 26.7588 41.24C26.3588 41.0267 25.8854 40.92 25.3388 40.92C24.7921 40.92 24.2721 41.0267 23.7788 41.24C23.2854 41.44 22.8388 41.74 22.4388 42.14H20.8988V33.76H29.8188V35.78H23.4188V40.48L22.6388 40.36C23.0388 39.88 23.5188 39.5133 24.0788 39.26C24.6388 39.0067 25.2721 38.88 25.9788 38.88C26.8721 38.88 27.6521 39.0733 28.3188 39.46C28.9988 39.8467 29.5254 40.38 29.8988 41.06C30.2854 41.74 30.4788 42.5333 30.4788 43.44C30.4788 44.3733 30.2588 45.2 29.8188 45.92C29.3921 46.6267 28.7854 47.1733 27.9988 47.56C27.2254 47.9467 26.2988 48.14 25.2188 48.14ZM35.7109 48H32.9509L39.8309 35.04L39.8909 35.84H32.2509V33.76H42.1709V35.68L35.7109 48ZM47.0031 42.38C45.9765 42.38 45.1631 42.02 44.5631 41.3C43.9631 40.5667 43.6631 39.4733 43.6631 38.02C43.6631 36.5667 43.9631 35.48 44.5631 34.76C45.1631 34.04 45.9765 33.68 47.0031 33.68C48.0298 33.68 48.8431 34.04 49.4431 34.76C50.0431 35.48 50.3431 36.5667 50.3431 38.02C50.3431 39.4733 50.0431 40.5667 49.4431 41.3C48.8565 42.02 48.0431 42.38 47.0031 42.38ZM47.0031 40.76C47.4165 40.76 47.7231 40.5467 47.9231 40.12C48.1231 39.6933 48.2231 38.9933 48.2231 38.02C48.2231 37.06 48.1165 36.3667 47.9031 35.94C47.7031 35.5133 47.4031 35.3 47.0031 35.3C46.5898 35.3 46.2831 35.5133 46.0831 35.94C45.8831 36.3667 45.7831 37.06 45.7831 38.02C45.7831 38.9933 45.8831 39.6933 46.0831 40.12C46.2831 40.5467 46.5898 40.76 47.0031 40.76ZM46.6631 48L54.9231 33.76H57.3231L49.0831 48H46.6631ZM56.9831 48.08C55.9565 48.08 55.1431 47.72 54.5431 47C53.9431 46.2667 53.6431 45.1733 53.6431 43.72C53.6431 42.2667 53.9431 41.18 54.5431 40.46C55.1431 39.74 55.9565 39.38 56.9831 39.38C58.0098 39.38 58.8231 39.74 59.4231 40.46C60.0231 41.18 60.3231 42.2667 60.3231 43.72C60.3231 45.1733 60.0231 46.2667 59.4231 47C58.8365 47.72 58.0231 48.08 56.9831 48.08ZM56.9831 46.46C57.3965 46.46 57.7031 46.2467 57.9031 45.82C58.1031 45.3933 58.2031 44.6933 58.2031 43.72C58.2031 42.76 58.0965 42.0667 57.8831 41.64C57.6831 41.2133 57.3831 41 56.9831 41C56.5698 41 56.2631 41.2133 56.0631 41.64C55.8631 42.0667 55.7631 42.76 55.7631 43.72C55.7631 44.6933 55.8631 45.3933 56.0631 45.82C56.2631 46.2467 56.5698 46.46 56.9831 46.46Z" fill="#333333"/>
</svg>
