<svg width="80" height="80" viewBox="0 0 80 80" fill="none" xmlns="http://www.w3.org/2000/svg">
<path d="M80 40C80 62.0914 62.0914 80 40 80C17.9086 80 0 62.0914 0 40C0 17.9086 17.9086 0 40 0C62.0914 0 80 17.9086 80 40ZM7.93189 40C7.93189 57.7107 22.2893 72.0681 40 72.0681C57.7107 72.0681 72.0681 57.7107 72.0681 40C72.0681 22.2893 57.7107 7.93189 40 7.93189C22.2893 7.93189 7.93189 22.2893 7.93189 40Z" fill="#F9F9F9"/>
<path d="M40 3.96423C40 1.77485 41.7792 -0.0203602 43.9579 0.196264C50.4709 0.843856 56.7472 3.08254 62.2228 6.74122C68.8008 11.1365 73.9277 17.3836 76.9552 24.6927C79.9827 32.0017 80.7748 40.0444 79.2314 47.8036C77.688 55.5629 73.8784 62.6902 68.2843 68.2843C62.6902 73.8784 55.5629 77.688 47.8036 79.2314C40.0444 80.7748 32.0017 79.9827 24.6927 76.9552C17.3836 73.9277 11.1365 68.8008 6.74122 62.2228C3.08254 56.7472 0.843856 50.4709 0.196263 43.9579C-0.0203603 41.7792 1.77485 40 3.96423 40C6.15362 40 7.9032 41.7816 8.17314 43.9543C8.78717 48.8964 10.5465 53.647 13.3335 57.818C16.8576 63.0921 21.8664 67.2028 27.7268 69.6302C33.5871 72.0577 40.0356 72.6928 46.2568 71.4553C52.4781 70.2178 58.1927 67.1633 62.678 62.678C67.1633 58.1927 70.2178 52.4781 71.4553 46.2568C72.6928 40.0356 72.0577 33.5871 69.6302 27.7268C67.2028 21.8664 63.0921 16.8576 57.818 13.3335C53.647 10.5465 48.8964 8.78717 43.9543 8.17314C41.7816 7.9032 40 6.15362 40 3.96423Z" fill="#0CBF9F"/>
<path d="M23.7188 48H20.9588L27.8388 35.04L27.8988 35.84H20.2588V33.76H30.1788V35.68L23.7188 48ZM37.2109 48.14C36.3309 48.14 35.4509 47.9933 34.5709 47.7C33.7043 47.4067 32.9909 47.0067 32.4309 46.5L33.2909 44.62C33.9309 45.1 34.5776 45.4667 35.2309 45.72C35.8976 45.9733 36.5709 46.1 37.2509 46.1C38.1309 46.1 38.8109 45.88 39.2909 45.44C39.7709 44.9867 40.0109 44.3467 40.0109 43.52C40.0109 42.9867 39.8976 42.5267 39.6709 42.14C39.4576 41.7533 39.1509 41.4533 38.7509 41.24C38.3509 41.0267 37.8776 40.92 37.3309 40.92C36.7843 40.92 36.2643 41.0267 35.7709 41.24C35.2776 41.44 34.8309 41.74 34.4309 42.14H32.8909V33.76H41.8109V35.78H35.4109V40.48L34.6309 40.36C35.0309 39.88 35.5109 39.5133 36.0709 39.26C36.6309 39.0067 37.2643 38.88 37.9709 38.88C38.8643 38.88 39.6443 39.0733 40.3109 39.46C40.9909 39.8467 41.5176 40.38 41.8909 41.06C42.2776 41.74 42.4709 42.5333 42.4709 43.44C42.4709 44.3733 42.2509 45.2 41.8109 45.92C41.3843 46.6267 40.7776 47.1733 39.9909 47.56C39.2176 47.9467 38.2909 48.14 37.2109 48.14ZM47.0031 42.38C45.9765 42.38 45.1631 42.02 44.5631 41.3C43.9631 40.5667 43.6631 39.4733 43.6631 38.02C43.6631 36.5667 43.9631 35.48 44.5631 34.76C45.1631 34.04 45.9765 33.68 47.0031 33.68C48.0298 33.68 48.8431 34.04 49.4431 34.76C50.0431 35.48 50.3431 36.5667 50.3431 38.02C50.3431 39.4733 50.0431 40.5667 49.4431 41.3C48.8565 42.02 48.0431 42.38 47.0031 42.38ZM47.0031 40.76C47.4165 40.76 47.7231 40.5467 47.9231 40.12C48.1231 39.6933 48.2231 38.9933 48.2231 38.02C48.2231 37.06 48.1165 36.3667 47.9031 35.94C47.7031 35.5133 47.4031 35.3 47.0031 35.3C46.5898 35.3 46.2831 35.5133 46.0831 35.94C45.8831 36.3667 45.7831 37.06 45.7831 38.02C45.7831 38.9933 45.8831 39.6933 46.0831 40.12C46.2831 40.5467 46.5898 40.76 47.0031 40.76ZM46.6631 48L54.9231 33.76H57.3231L49.0831 48H46.6631ZM56.9831 48.08C55.9565 48.08 55.1431 47.72 54.5431 47C53.9431 46.2667 53.6431 45.1733 53.6431 43.72C53.6431 42.2667 53.9431 41.18 54.5431 40.46C55.1431 39.74 55.9565 39.38 56.9831 39.38C58.0098 39.38 58.8231 39.74 59.4231 40.46C60.0231 41.18 60.3231 42.2667 60.3231 43.72C60.3231 45.1733 60.0231 46.2667 59.4231 47C58.8365 47.72 58.0231 48.08 56.9831 48.08ZM56.9831 46.46C57.3965 46.46 57.7031 46.2467 57.9031 45.82C58.1031 45.3933 58.2031 44.6933 58.2031 43.72C58.2031 42.76 58.0965 42.0667 57.8831 41.64C57.6831 41.2133 57.3831 41 56.9831 41C56.5698 41 56.2631 41.2133 56.0631 41.64C55.8631 42.0667 55.7631 42.76 55.7631 43.72C55.7631 44.6933 55.8631 45.3933 56.0631 45.82C56.2631 46.2467 56.5698 46.46 56.9831 46.46Z" fill="#333333"/>
</svg>
