<svg width="80" height="80" viewBox="0 0 80 80" fill="none" xmlns="http://www.w3.org/2000/svg">
<path d="M80 40C80 62.0914 62.0914 80 40 80C17.9086 80 0 62.0914 0 40C0 17.9086 17.9086 0 40 0C62.0914 0 80 17.9086 80 40ZM7.93189 40C7.93189 57.7107 22.2893 72.0681 40 72.0681C57.7107 72.0681 72.0681 57.7107 72.0681 40C72.0681 22.2893 57.7107 7.93189 40 7.93189C22.2893 7.93189 7.93189 22.2893 7.93189 40Z" fill="#F9F9F9"/>
<path d="M25.2188 48.14C24.1654 48.14 23.2388 47.9867 22.4388 47.68C21.6388 47.36 21.0121 46.9 20.5588 46.3C20.1188 45.7 19.8988 44.9867 19.8988 44.16C19.8988 43.16 20.2254 42.3467 20.8788 41.72C21.5321 41.08 22.4254 40.6867 23.5588 40.54L23.4788 40.84C22.4788 40.64 21.6854 40.24 21.0988 39.64C20.5121 39.0267 20.2188 38.2867 20.2188 37.42C20.2188 36.6333 20.4321 35.9533 20.8588 35.38C21.2988 34.8067 21.8921 34.3667 22.6388 34.06C23.3988 33.7533 24.2588 33.6 25.2188 33.6C26.1788 33.6 27.0321 33.7533 27.7788 34.06C28.5388 34.3667 29.1321 34.8067 29.5588 35.38C29.9988 35.9533 30.2188 36.6333 30.2188 37.42C30.2188 38.3 29.9254 39.0467 29.3388 39.66C28.7521 40.2733 27.9654 40.6667 26.9788 40.84L26.8988 40.54C28.0321 40.7 28.9188 41.1 29.5588 41.74C30.2121 42.38 30.5388 43.1867 30.5388 44.16C30.5388 44.9867 30.3121 45.7 29.8588 46.3C29.4188 46.9 28.7988 47.36 27.9988 47.68C27.1988 47.9867 26.2721 48.14 25.2188 48.14ZM25.2188 46.14C26.1121 46.14 26.8188 45.96 27.3388 45.6C27.8588 45.2267 28.1188 44.6867 28.1188 43.98C28.1188 43.3 27.8454 42.7667 27.2988 42.38C26.7654 41.98 26.0721 41.7267 25.2188 41.62C24.3654 41.7267 23.6654 41.98 23.1188 42.38C22.5854 42.7667 22.3188 43.3 22.3188 43.98C22.3188 44.6867 22.5788 45.2267 23.0988 45.6C23.6188 45.96 24.3254 46.14 25.2188 46.14ZM25.2188 39.98C25.9521 39.86 26.5588 39.6133 27.0388 39.24C27.5188 38.8533 27.7588 38.3333 27.7588 37.68C27.7588 37 27.5254 36.4867 27.0588 36.14C26.6054 35.78 25.9921 35.6 25.2188 35.6C24.4454 35.6 23.8254 35.78 23.3588 36.14C22.9054 36.4867 22.6788 37 22.6788 37.68C22.6788 38.3333 22.9188 38.8533 23.3988 39.24C23.8788 39.6133 24.4854 39.86 25.2188 39.98ZM37.2109 48.14C36.3309 48.14 35.4509 47.9933 34.5709 47.7C33.7043 47.4067 32.9909 47.0067 32.4309 46.5L33.2909 44.62C33.9309 45.1 34.5776 45.4667 35.2309 45.72C35.8976 45.9733 36.5709 46.1 37.2509 46.1C38.1309 46.1 38.8109 45.88 39.2909 45.44C39.7709 44.9867 40.0109 44.3467 40.0109 43.52C40.0109 42.9867 39.8976 42.5267 39.6709 42.14C39.4576 41.7533 39.1509 41.4533 38.7509 41.24C38.3509 41.0267 37.8776 40.92 37.3309 40.92C36.7843 40.92 36.2643 41.0267 35.7709 41.24C35.2776 41.44 34.8309 41.74 34.4309 42.14H32.8909V33.76H41.8109V35.78H35.4109V40.48L34.6309 40.36C35.0309 39.88 35.5109 39.5133 36.0709 39.26C36.6309 39.0067 37.2643 38.88 37.9709 38.88C38.8643 38.88 39.6443 39.0733 40.3109 39.46C40.9909 39.8467 41.5176 40.38 41.8909 41.06C42.2776 41.74 42.4709 42.5333 42.4709 43.44C42.4709 44.3733 42.2509 45.2 41.8109 45.92C41.3843 46.6267 40.7776 47.1733 39.9909 47.56C39.2176 47.9467 38.2909 48.14 37.2109 48.14ZM47.0031 42.38C45.9765 42.38 45.1631 42.02 44.5631 41.3C43.9631 40.5667 43.6631 39.4733 43.6631 38.02C43.6631 36.5667 43.9631 35.48 44.5631 34.76C45.1631 34.04 45.9765 33.68 47.0031 33.68C48.0298 33.68 48.8431 34.04 49.4431 34.76C50.0431 35.48 50.3431 36.5667 50.3431 38.02C50.3431 39.4733 50.0431 40.5667 49.4431 41.3C48.8565 42.02 48.0431 42.38 47.0031 42.38ZM47.0031 40.76C47.4165 40.76 47.7231 40.5467 47.9231 40.12C48.1231 39.6933 48.2231 38.9933 48.2231 38.02C48.2231 37.06 48.1165 36.3667 47.9031 35.94C47.7031 35.5133 47.4031 35.3 47.0031 35.3C46.5898 35.3 46.2831 35.5133 46.0831 35.94C45.8831 36.3667 45.7831 37.06 45.7831 38.02C45.7831 38.9933 45.8831 39.6933 46.0831 40.12C46.2831 40.5467 46.5898 40.76 47.0031 40.76ZM46.6631 48L54.9231 33.76H57.3231L49.0831 48H46.6631ZM56.9831 48.08C55.9565 48.08 55.1431 47.72 54.5431 47C53.9431 46.2667 53.6431 45.1733 53.6431 43.72C53.6431 42.2667 53.9431 41.18 54.5431 40.46C55.1431 39.74 55.9565 39.38 56.9831 39.38C58.0098 39.38 58.8231 39.74 59.4231 40.46C60.0231 41.18 60.3231 42.2667 60.3231 43.72C60.3231 45.1733 60.0231 46.2667 59.4231 47C58.8365 47.72 58.0231 48.08 56.9831 48.08ZM56.9831 46.46C57.3965 46.46 57.7031 46.2467 57.9031 45.82C58.1031 45.3933 58.2031 44.6933 58.2031 43.72C58.2031 42.76 58.0965 42.0667 57.8831 41.64C57.6831 41.2133 57.3831 41 56.9831 41C56.5698 41 56.2631 41.2133 56.0631 41.64C55.8631 42.0667 55.7631 42.76 55.7631 43.72C55.7631 44.6933 55.8631 45.3933 56.0631 45.82C56.2631 46.2467 56.5698 46.46 56.9831 46.46Z" fill="#333333"/>
<path d="M40 3.96423C40 1.77485 41.7793 -0.0203692 43.9579 0.196242C51.5229 0.948392 58.7473 3.8452 64.7608 8.58503C71.8162 14.146 76.7943 21.9201 78.8931 30.655C80.9918 39.3899 80.0891 48.577 76.3304 56.7363C72.5716 64.8956 66.1757 71.5521 58.1728 75.6335C50.17 79.7149 41.0263 80.9835 32.2146 79.235C23.4029 77.4865 15.4363 72.8227 9.59822 65.9948C3.76011 59.167 0.390382 50.5727 0.0318661 41.5963C-0.27371 33.9455 1.62347 26.3968 5.45671 19.8316C6.56064 17.9409 9.05855 17.5548 10.8307 18.8403C12.603 20.1259 12.973 22.5953 11.9158 24.5125C9.10259 29.6137 7.71954 35.4093 7.95401 41.2799C8.24147 48.477 10.9433 55.3679 15.6242 60.8424C20.3051 66.3168 26.6926 70.0563 33.7577 71.4582C40.8228 72.8601 48.1542 71.843 54.5708 68.5705C60.9873 65.2981 66.1156 59.961 69.1293 53.419C72.143 46.8769 72.8668 39.5108 71.184 32.5073C69.5012 25.5037 65.5099 19.2706 59.853 14.8118C55.2387 11.1749 49.7353 8.89134 43.9543 8.17312C41.7816 7.90319 40 6.15362 40 3.96423Z" fill="#FFB320"/>
</svg>
