<svg width="35" height="35" viewBox="0 0 35 35" fill="none" xmlns="http://www.w3.org/2000/svg">
<g clip-path="url(#clip0_783_734)">
<path d="M27.7083 4.37492H26.25V1.45825H23.3333V4.37492H11.6667V1.45825H8.75V4.37492H7.29167C5.6875 4.37492 4.375 5.68742 4.375 7.29159V27.7083C4.375 29.3124 5.6875 30.6249 7.29167 30.6249H27.7083C29.3125 30.6249 30.625 29.3124 30.625 27.7083V7.29159C30.625 5.68742 29.3125 4.37492 27.7083 4.37492ZM27.7083 27.7083H7.29167V13.1249H27.7083V27.7083ZM7.29167 10.2083V7.29159H27.7083V10.2083H7.29167ZM10.2083 16.0416H24.7917V18.9583H10.2083V16.0416ZM10.2083 21.8749H20.4167V24.7916H10.2083V21.8749Z" fill="#ED415C"/>
</g>
<defs>
<clipPath id="clip0_783_734">
<rect width="35" height="35" fill="white"/>
</clipPath>
</defs>
</svg>
