<svg width="25" height="25" viewBox="0 0 25 25" fill="none" xmlns="http://www.w3.org/2000/svg">
<path d="M8.14449 21.8856C16.9893 21.8856 21.8261 14.558 21.8261 8.20399C21.8261 7.99588 21.8218 7.78862 21.8125 7.58251C22.7513 6.9037 23.5673 6.05661 24.2112 5.09242C23.3496 5.47555 22.4223 5.73311 21.4498 5.84964C22.4425 5.2541 23.2047 4.31242 23.5642 3.18985C22.6351 3.74067 21.6061 4.14085 20.5108 4.35699C19.6333 3.42233 18.3839 2.83783 17.0006 2.83783C14.3453 2.83783 12.1917 4.99123 12.1917 7.64572C12.1917 8.02325 12.234 8.39018 12.3164 8.7422C8.31993 8.54111 4.77593 6.62778 2.40452 3.71817C1.99173 4.42866 1.75351 5.25424 1.75351 6.13516C1.75351 7.80324 2.60246 9.27625 3.8933 10.1377C3.10441 10.1134 2.36339 9.89687 1.71553 9.5364C1.71481 9.55661 1.71481 9.57624 1.71481 9.59774C1.71481 11.9266 3.37229 13.871 5.57285 14.3116C5.16866 14.4215 4.74339 14.4807 4.3048 14.4807C3.99549 14.4807 3.69393 14.4504 3.40096 14.394C4.01312 16.3046 5.78842 17.6949 7.89309 17.7339C6.24722 19.0239 4.17394 19.7923 1.92064 19.7923C1.53307 19.7923 1.14995 19.7701 0.77356 19.7256C2.90174 21.0897 5.4288 21.8858 8.14464 21.8858" fill="#777777"/>
</svg>
